<?xml version="1.0" encoding="utf-8"?>
<!-- Generator: Adobe Illustrator 21.1.0, SVG Export Plug-In . SVG Version: 6.00 Build 0)  -->
<svg version="1.1" id="Capa_1" xmlns="http://www.w3.org/2000/svg" xmlns:xlink="http://www.w3.org/1999/xlink" x="0px" y="0px"
	 viewBox="0 0 438.5 438.5" style="enable-background:new 0 0 438.5 438.5;" xml:space="preserve">
<style type="text/css">
	.st0{fill:#010002;}
</style>
<g>
	<path d="M409.1,114.6c-19.6-33.6-46.2-60.2-79.8-79.8C295.7,15.2,259.1,5.4,219.3,5.4c-39.8,0-76.5,9.8-110.1,29.4
		C75.6,54.4,49,81,29.4,114.6C9.8,148.2,0,184.9,0,224.6c0,47.8,13.9,90.7,41.8,128.9c27.9,38.2,63.9,64.6,108.1,79.2
		c5.1,1,8.9,0.3,11.4-2c2.5-2.3,3.7-5.1,3.7-8.6c0-0.6,0-5.7-0.1-15.4c-0.1-9.7-0.1-18.2-0.1-25.4l-6.6,1.1c-4.2,0.8-9.5,1.1-15.8,1
		c-6.4-0.1-13-0.8-19.8-2c-6.9-1.2-13.2-4.1-19.1-8.6c-5.9-4.5-10.1-10.3-12.6-17.6l-2.9-6.6c-1.9-4.4-4.9-9.2-9-14.6
		c-4.1-5.3-8.2-8.9-12.4-10.8l-2-1.4c-1.3-1-2.6-2.1-3.7-3.4c-1.1-1.3-2-2.7-2.6-4c-0.6-1.3-0.1-2.4,1.4-3.3S64,310,68,310l5.7,0.9
		c3.8,0.8,8.5,3,14.1,6.9c5.6,3.8,10.2,8.8,13.8,14.8c4.4,7.8,9.7,13.8,15.8,17.8c6.2,4.1,12.4,6.1,18.7,6.1s11.7-0.5,16.3-1.4
		c4.6-1,8.8-2.4,12.8-4.3c1.7-12.8,6.4-22.6,14-29.4c-10.8-1.1-20.6-2.9-29.3-5.1c-8.7-2.3-17.6-6-26.8-11.1
		c-9.2-5.1-16.9-11.5-23-19.1c-6.1-7.6-11.1-17.6-15-30c-3.9-12.4-5.9-26.6-5.9-42.8c0-23,7.5-42.6,22.6-58.8
		c-7-17.3-6.4-36.7,2-58.2c5.5-1.7,13.7-0.4,24.6,3.9c10.9,4.3,18.8,8,23.8,11c5,3,9.1,5.6,12.1,7.7c17.7-4.9,36-7.4,54.8-7.4
		s37.1,2.5,54.8,7.4l10.8-6.8c7.4-4.6,16.2-8.8,26.3-12.6c10.1-3.8,17.8-4.9,23.1-3.1c8.6,21.5,9.3,40.9,2.3,58.2
		c15,16.2,22.6,35.8,22.6,58.8c0,16.2-2,30.5-5.9,43c-3.9,12.5-8.9,22.5-15.1,30c-6.2,7.5-13.9,13.9-23.1,19
		c-9.2,5.1-18.2,8.9-26.8,11.1c-8.7,2.3-18.4,4-29.3,5.1c9.9,8.6,14.8,22.1,14.8,40.5v60.2c0,3.4,1.2,6.3,3.6,8.6
		c2.4,2.3,6.1,3,11.3,2c44.2-14.7,80.2-41.1,108.1-79.2c27.9-38.2,41.8-81.1,41.8-128.9C438.5,184.9,428.7,148.2,409.1,114.6z"/>
</g>
<g>
	<path id="LinkedIn__x28_alt_x29_" d="M2614.4,4h-366.6c-17.6,0-31.8,13.8-31.8,30.8v368.5c0,17,14.2,30.8,31.8,30.8h366.6
		c17.5,0,31.8-13.8,31.8-30.8V34.8C2646.1,17.8,2631.9,4,2614.4,4z M2346.4,364h-65V169.8h65V364z M2313.9,143.3h-0.4
		c-21.8,0-35.9-14.9-35.9-33.6c0-19,14.5-33.5,36.8-33.5c22.2,0,35.9,14.5,36.3,33.5C2350.7,128.4,2336.6,143.3,2313.9,143.3z
		 M2580.7,364h-65V260.1c0-26.1-9.4-43.9-32.9-43.9c-18,0-28.6,12-33.3,23.6c-1.7,4.1-2.2,9.9-2.2,15.7V364h-65c0,0,0.9-176,0-194.2
		h65v27.5c8.6-13.2,24-32.1,58.5-32.1c42.8,0,74.8,27.7,74.8,87.4V364L2580.7,364z M2446.9,198c0.1-0.2,0.3-0.4,0.4-0.6v0.6H2446.9z
		"/>
</g>
<g>
	<g>
		<path class="st0" d="M1947.9,29.3c-22.5,10-46.7,16.7-72.1,19.8c25.9-15.5,45.8-40.2,55.2-69.4c-24.3,14.4-51.2,24.8-79.8,30.5
			c-22.9-24.4-55.5-39.7-91.6-39.7c-69.3,0-125.6,56.2-125.6,125.5c0,9.8,1.1,19.4,3.3,28.6c-104.3-5.2-196.8-55.2-258.8-131.2
			c-10.8,18.5-17,40.1-17,63.1c0,43.6,22.2,82,55.8,104.5c-20.6-0.7-39.9-6.3-56.9-15.8v1.6c0,60.8,43.3,111.6,100.7,123.1
			c-10.5,2.8-21.6,4.4-33.1,4.4c-8.1,0-15.9-0.8-23.6-2.3c16,49.9,62.3,86.2,117.3,87.2c-42.9,33.7-97.1,53.7-155.9,53.7
			c-10.1,0-20.1-0.6-29.9-1.7c55.6,35.7,121.5,56.5,192.4,56.5c230.9,0,357.2-191.3,357.2-357.2l-0.4-16.3
			C1909.8,76.5,1931.1,54.4,1947.9,29.3z"/>
	</g>
</g>
</svg>
