<?xml version="1.0" encoding="utf-8"?>
<!-- Generator: Adobe Illustrator 21.1.0, SVG Export Plug-In . SVG Version: 6.00 Build 0)  -->
<svg version="1.1" id="Capa_1" xmlns="http://www.w3.org/2000/svg" xmlns:xlink="http://www.w3.org/1999/xlink" x="0px" y="0px"
	 viewBox="0 0 430.1 430.1" style="enable-background:new 0 0 430.1 430.1;" xml:space="preserve">
<style type="text/css">
	.st0{fill:#010002;}
</style>
<g>
	<path id="LinkedIn__x28_alt_x29_" d="M398.4,0H31.8C14.2,0,0,13.8,0,30.8v368.5c0,17,14.2,30.8,31.8,30.8h366.6
		c17.5,0,31.8-13.8,31.8-30.8V30.8C430.1,13.8,415.9,0,398.4,0z M130.4,360h-65V165.8h65V360z M97.9,139.3h-0.4
		c-21.8,0-35.9-14.9-35.9-33.6c0-19,14.5-33.5,36.8-33.5c22.2,0,35.9,14.5,36.3,33.5C134.7,124.4,120.6,139.3,97.9,139.3z
		 M364.7,360h-65V256.1c0-26.1-9.4-43.9-32.9-43.9c-18,0-28.6,12-33.3,23.6c-1.7,4.1-2.2,9.9-2.2,15.7V360h-65c0,0,0.9-176,0-194.2
		h65v27.5c8.6-13.2,24-32.1,58.5-32.1c42.8,0,74.8,27.7,74.8,87.4L364.7,360L364.7,360z M230.9,194c0.1-0.2,0.3-0.4,0.4-0.6v0.6
		H230.9z"/>
</g>
<g>
	<g>
		<path class="st0" d="M-268.1,25.3c-22.5,10-46.7,16.7-72.1,19.8c25.9-15.5,45.8-40.2,55.2-69.4C-309.3-10-336.2,0.4-364.8,6.1
			c-22.9-24.4-55.5-39.7-91.6-39.7c-69.3,0-125.6,56.2-125.6,125.5c0,9.8,1.1,19.4,3.3,28.6C-683,115.3-775.5,65.3-837.4-10.6
			c-10.8,18.5-17,40.1-17,63.1c0,43.6,22.2,82,55.8,104.5c-20.6-0.7-39.9-6.3-56.9-15.8v1.6c0,60.8,43.3,111.6,100.7,123.1
			c-10.5,2.8-21.6,4.4-33.1,4.4c-8.1,0-15.9-0.8-23.6-2.3c16,49.9,62.3,86.2,117.3,87.2c-42.9,33.7-97.1,53.7-155.9,53.7
			c-10.1,0-20.1-0.6-29.9-1.7c55.6,35.7,121.5,56.5,192.4,56.5c230.9,0,357.2-191.3,357.2-357.2l-0.4-16.3
			C-306.2,72.5-284.9,50.4-268.1,25.3z"/>
	</g>
</g>
</svg>
